<svg id="Layer_1" data-name="Layer 1" xmlns="http://www.w3.org/2000/svg" viewBox="0 0 186.02233 36"><title>terminal</title><path d="M61.81413,64.02974a.919.919,0,0,0-.75837-.31226H28.9368a.919.919,0,0,0-.75837.31226,1.07619,1.07619,0,0,0-.31228.75837v2.14126a.91894.91894,0,0,0,.31228.75836A1.07623,1.07623,0,0,0,28.9368,68h32.119a.919.919,0,0,0,.75837-.31227,1.07623,1.07623,0,0,0,.31227-.75836V64.78811A.919.919,0,0,0,61.81413,64.02974Z" transform="translate(-6.98883 -32)"/><path d="M10.46841,32.35688A1.09949,1.09949,0,0,0,9.71,32a1.09953,1.09953,0,0,0-.75837.35688L7.30111,34.00744a1.04474,1.04474,0,0,0-.31228.75836.9784.9784,0,0,0,.31228.75836L20.461,48.684,7.30111,61.84386a1.04477,1.04477,0,0,0-.31228.75837.9784.9784,0,0,0,.31228.75836l1.65056,1.65056a1.077,1.077,0,0,0,1.51674,0L26.03719,49.44238a1.077,1.077,0,0,0,0-1.51673Z" transform="translate(-6.98883 -32)"/><path d="M92.90707,44.49071H84.29741v-3.881h12.803V59.61339a9.34951,9.34951,0,0,1-.62453,3.39034,7.746,7.746,0,0,1-1.73978,2.632,8.29524,8.29524,0,0,1-2.67658,1.69517,9.48253,9.48253,0,0,1-3.47955.62453H83.36062v-3.881h5.0855a4.55521,4.55521,0,0,0,3.30111-1.20445A4.341,4.341,0,0,0,92.9517,59.658V44.49071Zm2.27509-12.08922a2.53293,2.53293,0,0,1,1.87362.66915,2.25765,2.25765,0,0,1,.71375,1.78438,2.1044,2.1044,0,0,1-.71375,1.73978,2.71627,2.71627,0,0,1-1.91821.66914h-.8922a2.53294,2.53294,0,0,1-1.87361-.66914A2.22471,2.22471,0,0,1,91.658,34.855a2.25765,2.25765,0,0,1,.71376-1.78438,2.67846,2.67846,0,0,1,1.87361-.66915Z" transform="translate(-6.98883 -32)"/><path d="M105.57621,48.50558a9.1742,9.1742,0,0,1,.62453-3.39034,7.07721,7.07721,0,0,1,1.78439-2.58736,7.944,7.944,0,0,1,2.8104-1.65056,11.686,11.686,0,0,1,7.27139,0,8.15165,8.15165,0,0,1,2.7658,1.65056,7.65978,7.65978,0,0,1,1.78439,2.58736,9.1742,9.1742,0,0,1,.62453,3.39034v5.21933a9.41448,9.41448,0,0,1-.62453,3.43494,7.24841,7.24841,0,0,1-1.78439,2.632,8.15137,8.15137,0,0,1-2.7658,1.65055,10.49378,10.49378,0,0,1-3.658.57993,10.2385,10.2385,0,0,1-3.61339-.57993,7.77545,7.77545,0,0,1-2.8104-1.69517,7.64751,7.64751,0,0,1-1.78439-2.632,9.17428,9.17428,0,0,1-.62453-3.39034Zm4.19331,5.26394a4.522,4.522,0,0,0,1.20446,3.34572,4.631,4.631,0,0,0,3.39034,1.20446,4.70259,4.70259,0,0,0,3.39034-1.20446,4.37467,4.37467,0,0,0,1.24906-3.34572V48.55019a4.3747,4.3747,0,0,0-1.24906-3.34573A4.70263,4.70263,0,0,0,114.36432,44a4.441,4.441,0,0,0-3.34572,1.24908,4.50906,4.50906,0,0,0-1.24907,3.34572v5.17472Z" transform="translate(-6.98883 -32)"/><path d="M129.75466,40.65428h3.97025v3.61339h.35688a4.45172,4.45172,0,0,1,1.96282-2.94425,6.63916,6.63916,0,0,1,3.881-1.07062,6.78654,6.78654,0,0,1,5.26393,2.09665,8.12823,8.12823,0,0,1,1.91821,5.79925v1.38291h-4.32714V48.5948a4.85375,4.85375,0,0,0-1.20447-3.47955,4.81149,4.81149,0,0,0-6.4684,0,4.81432,4.81432,0,0,0-1.20447,3.43494V61.66543H129.71V40.65428Z" transform="translate(-6.98883 -32)"/><path d="M151.47956,48.50558a10.282,10.282,0,0,1,.53532-3.435,7.69489,7.69489,0,0,1,1.47212-2.58736,6.5003,6.5003,0,0,1,2.27509-1.65055,7.08278,7.08278,0,0,1,2.94424-.57993,6.351,6.351,0,0,1,3.79183,1.07063,4.61091,4.61091,0,0,1,1.91821,2.94424h.35688c-.04461-.4461-.04461-.84758-.08922-1.29368a10.93749,10.93749,0,0,1-.08921-1.20446V33.78439h4.1487V61.71005h-3.97026V58.09666h-.35688a4.55643,4.55643,0,0,1-1.91822,2.94424,6.44569,6.44569,0,0,1-3.79182,1.07063,7.08275,7.08275,0,0,1-2.94424-.57992,6.50058,6.50058,0,0,1-2.27509-1.65056,7.91567,7.91567,0,0,1-1.47213-2.632,10.55393,10.55393,0,0,1-.53531-3.47955v-5.264Zm8.69889,9.90334a4.1019,4.1019,0,0,0,3.16729-1.24907,4.6648,4.6648,0,0,0,1.20446-3.34573V48.59479a4.70265,4.70265,0,0,0-1.20446-3.39033,4.16748,4.16748,0,0,0-3.16729-1.24907,4.338,4.338,0,0,0-3.30111,1.24907,4.7416,4.7416,0,0,0-1.20446,3.43494v5.17472a4.17615,4.17615,0,0,0,4.50557,4.5948Z" transform="translate(-6.98883 -32)"/><path d="M175.12269,61.66543V57.829h7.62825V44.40148h-6.64683V40.60966h10.70632V57.829h6.20074v3.83643H175.12269Zm8.69888-29.26394h.8922a2.71621,2.71621,0,0,1,1.91821.66915,2.25765,2.25765,0,0,1,.71376,1.78438,2.10441,2.10441,0,0,1-.71376,1.73978,2.71625,2.71625,0,0,1-1.91821.66914h-.8922a2.5329,2.5329,0,0,1-1.8736-.66914,2.22471,2.22471,0,0,1-.71376-1.73978,2.25765,2.25765,0,0,1,.71376-1.78438A2.53287,2.53287,0,0,1,183.82157,32.40149Z" transform="translate(-6.98883 -32)"/></svg>